<svg width="24" height="18" viewBox="0 0 24 18" fill="none" xmlns="http://www.w3.org/2000/svg">
<path d="M24 6.90908C24 6.36363 23.9124 5.72727 23.9124 5C23.8248 4.27273 23.7372 3.54545 23.6496 2.90909C23.4745 2.18182 23.2117 1.63637 22.6861 1.18182C22.2482 0.727275 21.635 0.45454 21.0219 0.363631C19.0073 0.0909035 16.0292 0 12 0C7.97082 0 4.90511 0.0909035 2.9781 0.363631C2.36496 0.45454 1.75183 0.727275 1.31387 1.18182C0.875913 1.63637 0.525542 2.18182 0.35036 2.90909C0.175177 3.54545 0.0875966 4.18182 0.0875966 5C5.34484e-06 5.72727 0 6.36363 0 6.90908C0 7.45454 0 8.0909 0 8.99999C0 9.90908 0 10.6364 0 11.0909C0 11.6364 0.0875966 12.2727 0.0875966 13C0.175188 13.7273 0.262768 14.4545 0.35036 15.0909C0.525542 15.8182 0.788321 16.3636 1.31387 16.8182C1.75183 17.2727 2.36496 17.5454 2.9781 17.6364C4.9927 17.9091 7.97082 18 12 18C16.0292 18 19.0949 17.9091 21.0219 17.6364C21.635 17.5454 22.2482 17.2727 22.6861 16.8182C23.1241 16.3636 23.4745 15.8182 23.6496 15.0909C23.8248 14.4545 23.9124 13.8182 23.9124 13C24 12.2727 24 11.6364 24 11.0909C24 10.5455 24 9.90908 24 8.99999C24 8.0909 24 7.36363 24 6.90908ZM16.6423 9.72727L9.72264 14.1818C9.63504 14.2727 9.45986 14.3636 9.28468 14.3636C9.1095 14.3636 9.0219 14.3636 8.84672 14.2727C8.58395 14.0909 8.40877 13.8182 8.40877 13.4545V4.45454C8.40877 4.0909 8.58395 3.81818 8.84672 3.63636C9.1095 3.45454 9.45986 3.45454 9.72264 3.63636L16.6423 8.0909C16.9051 8.27272 17.0803 8.54545 17.0803 8.81818C17.0803 9.09091 16.9051 9.54545 16.6423 9.72727Z" fill="black"/>
</svg>
